```plantuml

@startuml compactor

skinparam linetype ortho

interface CarPart{
	+ PrintPart()
	+ AddPart(v interface{})
	+ RemovePart(v interface{})
}

class Car{
	Container: list.List
}
class Engine{
	Container: list.List
}
class Suspenstion{
	Container: list.List
}


class Damping   {
}
class Stabilizer   {
}
class Rack   {
}
class Lever   {
}
class Spring   {
}
class Absorber   {
}

class  CylinderBlock    {
}
class  Sump    {
}
class  Crankshaft    {
}
class  Rod    {
}

CarPart <|.. Car
CarPart <|.. Engine
CarPart <|.. Suspenstion

Damping --> Suspenstion
Stabilizer --> Suspenstion
Rack --> Suspenstion
Lever --> Suspenstion
Spring --> Suspenstion
Absorber--> Suspenstion



CylinderBlock --> Engine
Sump --> Engine
Crankshaft --> Engine
Rod --> Engine
Engine --> Car
Suspenstion --> Car

@enduml

```